# xmcd
# 
# Track frame offsets:
#     150
#     32872
#     48789
#     60768
# 
# Disc length: 1248
# 
# Revision: 1
# Processed by: cddbd v1.5.2PL0 Copyright (c) Steve Scherf et al.
# Submitted via: BonkEnc v1.0.8
# 
DISCID=2504de04
DTITLE=Beverly A. Lujan - The American Accent Guide - Section 1
DYEAR=0
DGENRE=Speech
TTITLE0=Intonation and Stress
TTITLE1=Falling and Rising Inflection
TTITLE2=Stress for Emphasis
TTITLE3=Rhythm
EXTD=
EXTT0=
EXTT1=
EXTT2=
EXTT3=
PLAYORDER=
